<svg width="43" height="10" viewBox="0 0 43 10" fill="none" xmlns="http://www.w3.org/2000/svg">
<path d="M4.3 9.70829C6.67482 9.70829 8.6 7.53501 8.6 4.85414C8.6 2.17327 6.67482 0 4.3 0C1.92518 0 0 2.17327 0 4.85414C0 7.53501 1.92518 9.70829 4.3 9.70829Z" fill="black"/>
<path d="M21.5 9.70829C23.8748 9.70829 25.8 7.53501 25.8 4.85414C25.8 2.17327 23.8748 0 21.5 0C19.1252 0 17.2 2.17327 17.2 4.85414C17.2 7.53501 19.1252 9.70829 21.5 9.70829Z" fill="black"/>
<path d="M38.7 9.70829C41.0748 9.70829 43 7.53501 43 4.85414C43 2.17327 41.0748 0 38.7 0C36.3252 0 34.4 2.17327 34.4 4.85414C34.4 7.53501 36.3252 9.70829 38.7 9.70829Z" fill="black"/>
</svg>
