<svg width="32" height="37" viewBox="0 0 32 37" fill="none" xmlns="http://www.w3.org/2000/svg">
<path d="M9.14286 35.15V37H4.57143V35.15C3.35901 35.15 2.19625 34.7602 1.33894 34.0663C0.481631 33.3724 0 32.4313 0 31.45V3.7C0 2.7187 0.481631 1.77759 1.33894 1.0837C2.19625 0.38982 3.35901 0 4.57143 0H27.4286C28.641 0 29.8038 0.38982 30.6611 1.0837C31.5184 1.77759 32 2.7187 32 3.7V31.45C32 32.4313 31.5184 33.3724 30.6611 34.0663C29.8038 34.7602 28.641 35.15 27.4286 35.15V37H22.8571V35.15H9.14286ZM4.57143 3.7V12.95H27.4286V3.7H4.57143ZM4.57143 31.45H27.4286V16.65H4.57143V31.45ZM6.85714 18.5H11.4286V24.05H6.85714V18.5ZM6.85714 7.4H11.4286V11.1H6.85714V7.4Z" fill="black"/>
</svg>
