<svg width="37" height="31" viewBox="0 0 37 31" fill="none" xmlns="http://www.w3.org/2000/svg">
<path d="M29.4584 24.25C27.4696 24.25 25.875 25.5479 25.875 27.1667C25.875 27.9402 26.2525 28.6821 26.9246 29.229C27.5966 29.776 28.508 30.0833 29.4584 30.0833C30.4087 30.0833 31.3201 29.776 31.9922 29.229C32.6642 28.6821 33.0417 27.9402 33.0417 27.1667C33.0417 25.5479 31.4292 24.25 29.4584 24.25ZM0.791687 0.916656V3.83332H4.37502L10.825 14.9021L8.38835 18.475C8.1196 18.8833 7.95835 19.3646 7.95835 19.875C7.95835 20.6485 8.33588 21.3904 9.00789 21.9374C9.67989 22.4844 10.5913 22.7917 11.5417 22.7917H33.0417V19.875H12.2942C12.1754 19.875 12.0615 19.8366 11.9775 19.7682C11.8935 19.6998 11.8463 19.6071 11.8463 19.5104C11.8463 19.4375 11.8642 19.3792 11.9 19.3354L13.5125 16.9583H26.8604C28.2042 16.9583 29.3867 16.3458 29.9959 15.4562L36.41 6.02082C36.5354 5.78749 36.625 5.53957 36.625 5.29166C36.625 4.90488 36.4363 4.53395 36.1003 4.26046C35.7643 3.98697 35.3085 3.83332 34.8334 3.83332H8.3346L6.65044 0.916656M11.5417 24.25C9.55294 24.25 7.95835 25.5479 7.95835 27.1667C7.95835 27.9402 8.33588 28.6821 9.00789 29.229C9.67989 29.776 10.5913 30.0833 11.5417 30.0833C12.492 30.0833 13.4035 29.776 14.0755 29.229C14.7475 28.6821 15.125 27.9402 15.125 27.1667C15.125 25.5479 13.5125 24.25 11.5417 24.25Z" fill="black"/>
</svg>
