<svg width="74" height="78" viewBox="0 0 74 78" fill="none" xmlns="http://www.w3.org/2000/svg">
<g id="More vert" clip-path="url(#clip0_377_66)">
<path id="Vector" d="M42.5 26C46.3958 26 49.5833 23.075 49.5833 19.5C49.5833 15.925 46.3958 13 42.5 13C38.6042 13 35.4167 15.925 35.4167 19.5C35.4167 23.075 38.6042 26 42.5 26ZM42.5 32.5C38.6042 32.5 35.4167 35.425 35.4167 39C35.4167 42.575 38.6042 45.5 42.5 45.5C46.3958 45.5 49.5833 42.575 49.5833 39C49.5833 35.425 46.3958 32.5 42.5 32.5ZM42.5 52C38.6042 52 35.4167 54.925 35.4167 58.5C35.4167 62.075 38.6042 65 42.5 65C46.3958 65 49.5833 62.075 49.5833 58.5C49.5833 54.925 46.3958 52 42.5 52Z" fill="black"/>
</g>
<defs>
<clipPath id="clip0_377_66">
<rect width="85" height="78" fill="white"/>
</clipPath>
</defs>
</svg>
