<svg width="34" height="36" viewBox="0 0 34 36" fill="none" xmlns="http://www.w3.org/2000/svg">
<path d="M33.5 28.6666V30.3333H0.5V28.6666L4.16667 25.3333V15.3333C4.16667 10.1666 7.88833 5.61665 13.3333 4.14998C13.3333 3.98331 13.3333 3.83331 13.3333 3.66665C13.3333 2.78259 13.7196 1.93474 14.4073 1.30962C15.0949 0.684502 16.0275 0.333313 17 0.333313C17.9725 0.333313 18.9051 0.684502 19.5927 1.30962C20.2804 1.93474 20.6667 2.78259 20.6667 3.66665C20.6667 3.83331 20.6667 3.98331 20.6667 4.14998C26.1117 5.61665 29.8333 10.1666 29.8333 15.3333V25.3333L33.5 28.6666ZM20.6667 32C20.6667 32.884 20.2804 33.7319 19.5927 34.357C18.9051 34.9821 17.9725 35.3333 17 35.3333C16.0275 35.3333 15.0949 34.9821 14.4073 34.357C13.7196 33.7319 13.3333 32.884 13.3333 32" fill="black"/>
</svg>
