<svg width="40" height="41" viewBox="0 0 40 41" fill="none" xmlns="http://www.w3.org/2000/svg">
<path d="M20 0C17.3736 0 14.7728 0.530248 12.3463 1.56047C9.91982 2.59069 7.71504 4.10071 5.85786 6.00431C2.10714 9.84881 0 15.0631 0 20.5C0 25.9369 2.10714 31.1512 5.85786 34.9957C7.71504 36.8993 9.91982 38.4093 12.3463 39.4395C14.7728 40.4698 17.3736 41 20 41C25.3043 41 30.3914 38.8402 34.1421 34.9957C37.8929 31.1512 40 25.9369 40 20.5C40 17.8079 39.4827 15.1422 38.4776 12.655C37.4725 10.1678 35.9993 7.90791 34.1421 6.00431C32.285 4.10071 30.0802 2.59069 27.6537 1.56047C25.2272 0.530248 22.6264 0 20 0ZM10.14 33.374C11 31.529 16.24 29.725 20 29.725C23.76 29.725 29 31.529 29.86 33.374C27.14 35.588 23.72 36.9 20 36.9C16.28 36.9 12.86 35.588 10.14 33.374ZM32.72 30.4015C29.86 26.8345 22.92 25.625 20 25.625C17.08 25.625 10.14 26.8345 7.28 30.4015C5.24 27.675 4 24.231 4 20.5C4 11.4595 11.18 4.1 20 4.1C28.82 4.1 36 11.4595 36 20.5C36 24.231 34.76 27.675 32.72 30.4015ZM20 8.2C16.12 8.2 13 11.398 13 15.375C13 19.352 16.12 22.55 20 22.55C23.88 22.55 27 19.352 27 15.375C27 11.398 23.88 8.2 20 8.2ZM20 18.45C19.2044 18.45 18.4413 18.126 17.8787 17.5494C17.3161 16.9727 17 16.1905 17 15.375C17 14.5595 17.3161 13.7773 17.8787 13.2006C18.4413 12.624 19.2044 12.3 20 12.3C20.7956 12.3 21.5587 12.624 22.1213 13.2006C22.6839 13.7773 23 14.5595 23 15.375C23 16.1905 22.6839 16.9727 22.1213 17.5494C21.5587 18.126 20.7956 18.45 20 18.45Z" fill="black"/>
</svg>
