<svg width="64" height="56" viewBox="0 0 64 56" fill="none" xmlns="http://www.w3.org/2000/svg">
<g filter="url(#filter0_d_20_386)">
<path d="M32 48C28.5636 45.6 22.3273 43.7647 18 43.7647C13.8 43.7647 9.47273 44.6118 5.90909 46.7294C5.65455 46.8706 5.52727 46.8706 5.27273 46.8706C4.63636 46.8706 4 46.1647 4 45.4588V4.23529C5.52727 2.96471 7.18182 2.11765 9.09091 1.41176C11.9164 0.423529 15.0218 0 18 0C22.9636 0 28.3091 1.12941 32 4.23529C35.6909 1.12941 41.0364 0 46 0C48.9782 0 52.0836 0.423529 54.9091 1.41176C56.8182 2.11765 58.4727 2.96471 60 4.23529V45.4588C60 46.1647 59.3636 46.8706 58.7273 46.8706C58.4727 46.8706 58.3455 46.8706 58.0909 46.7294C54.5273 44.6118 50.2 43.7647 46 43.7647C41.6727 43.7647 35.4364 45.6 32 48ZM32 9.88235V42.3529C35.4364 39.9529 41.6727 38.1176 46 38.1176C49.0545 38.1176 52.1091 38.5412 54.9091 39.5294V7.05882C52.1091 6.07059 49.0545 5.64706 46 5.64706C41.6727 5.64706 35.4364 7.48235 32 9.88235ZM34.5455 19.7647C37.3709 17.8447 41.1636 16.9412 46 16.9412C48.3164 16.9412 50.48 17.1953 52.3636 17.7318V13.3553C50.1491 12.9318 48.0109 12.7059 46 12.7059C41.4945 12.7059 37.6764 13.4965 34.5455 15.0776V19.7647ZM46 20.2447C41.6473 20.2447 37.8291 20.9788 34.5455 22.4753V27.2471C37.3709 25.4118 41.1636 24.4518 46 24.4518C48.6473 24.4518 50.7855 24.6776 52.3636 25.1294V20.8941C50.1491 20.4424 48.0109 20.2447 46 20.2447ZM52.3636 28.4329C50.1491 27.9812 48.0109 27.7553 46 27.7553C41.3418 27.7553 37.5236 28.5176 34.5455 30.0141V34.7859C37.3709 32.9224 41.1636 31.9906 46 31.9906C48.6473 31.9906 50.7855 32.2165 52.3636 32.6682V28.4329Z" fill="black"/>
<path d="M31.6781 4.61787L32 4.88877L32.3219 4.61787C35.8844 1.62007 41.0919 0.5 46 0.5C48.9323 0.5 51.9786 0.917161 54.7398 1.88226C56.5352 2.54642 58.0794 3.32984 59.5 4.47225V45.4588C59.5 45.6666 59.4024 45.9044 59.2309 46.0946C59.0563 46.2883 58.8636 46.3706 58.7273 46.3706C58.5892 46.3706 58.5419 46.369 58.5 46.3613C58.4719 46.3561 58.4292 46.3447 58.3394 46.2955C54.6778 44.1218 50.2576 43.2647 46 43.2647C43.7747 43.2647 41.084 43.7349 38.5222 44.5034C36.0968 45.231 33.7505 46.2369 32 47.3955C30.2495 46.2369 27.9032 45.231 25.4778 44.5034C22.916 43.7349 20.2253 43.2647 18 43.2647C13.7424 43.2647 9.32212 44.1218 5.66052 46.2955C5.57078 46.3447 5.52806 46.3561 5.50001 46.3613C5.45809 46.369 5.41082 46.3706 5.27273 46.3706C5.13637 46.3706 4.94369 46.2883 4.76909 46.0946C4.59763 45.9044 4.5 45.6666 4.5 45.4588V4.47225C5.9206 3.32985 7.46478 2.54643 9.26015 1.88227C12.0213 0.917165 15.0677 0.5 18 0.5C22.9081 0.5 28.1156 1.62007 31.6781 4.61787ZM31.7137 9.47243L31.5 9.62169V9.88235V42.3529V43.312L32.2863 42.7629C33.9464 41.6034 36.3107 40.5638 38.8096 39.8142C41.3069 39.0651 43.898 38.6176 46 38.6176C49.0102 38.6176 52.0067 39.0353 54.7427 40.0009L55.4091 40.2361V39.5294V7.05882V6.70507L55.0755 6.58733C52.2115 5.5765 49.0988 5.14706 46 5.14706C43.7747 5.14706 41.084 5.6173 38.5222 6.38579C35.962 7.15381 33.4899 8.23188 31.7137 9.47243ZM46 16.4412C41.5296 16.4412 37.8835 17.2035 35.0455 18.8591V15.3882C38.0387 13.9407 41.6841 13.2059 46 13.2059C47.8518 13.2059 49.82 13.4011 51.8636 13.7708V17.0824C50.0832 16.6462 48.097 16.4412 46 16.4412ZM35.0455 26.3602V22.7996C38.1856 21.4262 41.8331 20.7447 46 20.7447C47.857 20.7447 49.8254 20.916 51.8636 21.305V24.4847C50.3072 24.1258 48.3369 23.9518 46 23.9518C41.5202 23.9518 37.8777 24.7646 35.0455 26.3602ZM46 28.2553C47.8532 28.2553 49.8215 28.4508 51.8636 28.8436V32.0235C50.3072 31.6646 48.3369 31.4906 46 31.4906C41.5242 31.4906 37.8802 32.2784 35.0455 33.893V30.3258C37.8936 28.9632 41.5373 28.2553 46 28.2553Z" stroke="black"/>
</g>
<defs>
<filter id="filter0_d_20_386" x="0" y="0" width="64" height="56" filterUnits="userSpaceOnUse" color-interpolation-filters="sRGB">
<feFlood flood-opacity="0" result="BackgroundImageFix"/>
<feColorMatrix in="SourceAlpha" type="matrix" values="0 0 0 0 0 0 0 0 0 0 0 0 0 0 0 0 0 0 127 0" result="hardAlpha"/>
<feOffset dy="4"/>
<feGaussianBlur stdDeviation="2"/>
<feComposite in2="hardAlpha" operator="out"/>
<feColorMatrix type="matrix" values="0 0 0 0 0 0 0 0 0 0 0 0 0 0 0 0 0 0 0.25 0"/>
<feBlend mode="normal" in2="BackgroundImageFix" result="effect1_dropShadow_20_386"/>
<feBlend mode="normal" in="SourceGraphic" in2="effect1_dropShadow_20_386" result="shape"/>
</filter>
</defs>
</svg>
